<svg width="492" height="196" viewBox="0 0 492 196" fill="none" xmlns="http://www.w3.org/2000/svg">
<path fill-rule="evenodd" clip-rule="evenodd" d="M98 196C152.124 196 196 152.124 196 98C196 43.8761 152.124 0 98 0C43.8761 0 0 43.8761 0 98C0 152.124 43.8761 196 98 196ZM110.662 128.009C110.847 124.691 111.722 122.387 113.289 121.097C111.722 120.82 109.925 120.913 107.898 121.373C105.963 121.834 104.073 122.664 102.23 123.862C100.387 124.967 98.8205 126.488 97.5304 128.423C96.3324 130.359 95.7333 132.708 95.7333 135.473C95.7333 138.053 96.5627 140.68 98.2215 143.352C99.8803 146.025 102.092 148.467 104.857 150.679C107.714 152.89 111.031 154.687 114.809 156.07C118.588 157.452 122.597 158.143 126.836 158.143C131.628 158.143 135.913 157.314 139.691 155.655C143.47 154.088 146.649 151.969 149.229 149.296C151.902 146.624 153.929 143.537 155.312 140.035C156.786 136.441 157.523 132.708 157.523 128.838C157.523 125.244 156.74 122.065 155.173 119.3C153.607 116.535 151.487 114.047 148.815 111.835C146.234 109.624 143.285 107.688 139.968 106.03C136.65 104.279 133.287 102.666 129.877 101.191C126.375 99.7169 123.011 98.2424 119.786 96.768C116.653 95.2935 113.842 93.819 111.354 92.3445C108.958 90.7779 107.022 89.1652 105.548 87.5064C104.166 85.7554 103.474 83.8662 103.474 81.8388C103.474 79.7192 104.166 77.6458 105.548 75.6183C106.93 73.5909 108.773 71.7939 111.077 70.2273C113.473 68.5685 116.192 67.2322 119.233 66.2185C122.274 65.2048 125.407 64.698 128.633 64.698C134.254 64.698 138.309 65.4813 140.797 67.0479C143.378 68.6145 144.99 70.4577 145.635 72.5772C146.373 74.6968 146.511 76.8164 146.05 78.9359C145.589 81.0555 145.129 82.7143 144.668 83.9123C145.589 83.5437 146.787 82.8525 148.262 81.8388C149.736 80.733 151.165 79.4889 152.547 78.1065C153.929 76.632 155.127 75.0654 156.141 73.4066C157.155 71.6557 157.662 69.9508 157.662 68.292C157.662 66.6332 157.293 64.8823 156.556 63.0392C155.911 61.1039 154.62 59.353 152.685 57.7863C150.75 56.1275 148.031 54.7913 144.53 53.7776C141.028 52.7639 136.466 52.257 130.844 52.257C125.131 52.257 119.97 53.1325 115.362 54.8834C110.847 56.6344 106.976 58.9383 103.751 61.7951C100.525 64.5597 98.0372 67.6469 96.2863 71.0567C94.5353 74.4664 93.6599 77.8301 93.6599 81.1477C93.6599 86.2162 94.6736 90.5014 96.701 94.0033C98.8205 97.413 101.355 100.316 104.304 102.712C107.253 105.016 110.34 106.905 113.565 108.38C116.791 109.762 119.555 110.914 121.859 111.835C124.348 112.941 126.79 114.047 129.186 115.153C131.674 116.167 133.84 117.457 135.683 119.023C137.618 120.498 139.138 122.249 140.244 124.276C141.442 126.304 142.041 128.838 142.041 131.879C142.041 133.999 141.765 136.164 141.212 138.376C140.659 140.588 139.784 142.615 138.585 144.458C137.48 146.209 136.005 147.684 134.162 148.882C132.411 150.08 130.292 150.679 127.803 150.679C123.933 150.679 120.707 149.389 118.127 146.808C115.547 144.228 113.611 141.279 112.321 137.961C111.123 134.552 110.57 131.234 110.662 128.009ZM172.242 95.3856C170.768 96.0307 170.031 96.6297 170.031 97.1827C170.123 99.3022 170.307 102.482 170.584 106.721C170.86 110.868 170.814 116.766 170.445 124.415C170.261 128.285 170.215 131.603 170.307 134.367C170.399 137.04 170.538 139.251 170.722 141.002C170.906 142.661 171.09 143.951 171.275 144.873C171.459 145.795 171.643 146.44 171.828 146.808C171.92 147.177 172.473 147.361 173.487 147.361C174.5 147.361 175.56 147.223 176.666 146.946C177.772 146.762 178.785 146.44 179.707 145.979C180.629 145.518 181.089 145.057 181.089 144.596C180.997 142.016 180.997 139.482 181.089 136.994C181.181 134.505 181.32 132.248 181.504 130.22C181.688 127.824 181.873 125.613 182.057 123.585C182.149 121.65 182.333 119.3 182.61 116.535C182.886 113.678 183.163 110.868 183.439 108.103C183.716 105.246 183.946 102.574 184.13 100.086C184.315 97.5052 184.407 95.5239 184.407 94.1415C184.407 93.4043 183.624 93.0817 182.057 93.1739C180.582 93.1739 178.924 93.4043 177.081 93.8651C175.33 94.2337 173.717 94.7405 172.242 95.3856ZM184.96 71.3331C183.301 70.2273 181.55 69.6743 179.707 69.6743C177.68 69.6743 176.021 69.9969 174.731 70.642C173.44 71.287 172.427 72.1164 171.689 73.1301C170.952 74.0517 170.445 75.1115 170.169 76.3095C169.892 77.4154 169.754 78.4291 169.754 79.3506C169.754 80.0879 169.846 80.8712 170.031 81.7006C170.215 82.53 170.538 83.3133 170.998 84.0505C171.551 84.6956 172.288 85.2946 173.21 85.8476C174.132 86.3083 175.33 86.5387 176.804 86.5387C177.91 86.5387 179.108 86.2623 180.398 85.7093C181.688 85.0642 182.84 84.2348 183.854 83.2211C184.868 82.2074 185.697 81.0555 186.342 79.7653C187.079 78.4752 187.448 77.1389 187.448 75.7566C187.448 73.9135 186.619 72.439 184.96 71.3331ZM178.048 81.9771C177.403 82.3457 176.804 82.53 176.251 82.53C175.514 82.53 175.145 82.0692 175.145 81.1477C175.145 80.5947 175.33 80.0418 175.698 79.4889C176.159 78.8438 176.712 78.2908 177.357 77.8301C178.002 77.2771 178.647 76.8164 179.292 76.4477C180.03 76.0791 180.629 75.8948 181.089 75.8948C181.827 75.8948 182.195 76.2634 182.195 77.0007C182.195 77.4614 181.965 78.0144 181.504 78.6595C181.135 79.3046 180.629 79.9036 179.983 80.4565C179.431 81.0094 178.785 81.5163 178.048 81.9771ZM209.632 144.182C210.553 143.537 211.06 142.938 211.152 142.385C211.336 139.897 211.843 136.855 212.673 133.261C213.502 129.667 214.516 126.073 215.714 122.479C216.912 118.793 218.156 115.429 219.446 112.388C220.828 109.255 222.119 106.997 223.317 105.615C223.777 105.062 224.423 105.154 225.252 105.891C226.081 106.536 226.726 107.688 227.187 109.347C227.279 109.9 227.279 110.96 227.187 112.526C227.095 114.001 226.957 115.798 226.772 117.918C226.68 119.945 226.496 122.157 226.22 124.553C226.035 126.857 225.851 129.114 225.667 131.326C225.482 133.446 225.344 135.381 225.252 137.132C225.252 138.791 225.344 139.989 225.528 140.726C225.989 143.122 226.496 144.873 227.049 145.979C227.694 147.085 228.431 147.776 229.261 148.052C229.629 148.144 230.274 148.052 231.196 147.776C231.933 147.592 232.993 147.269 234.375 146.808C235.758 146.347 237.555 145.61 239.766 144.596C239.398 144.32 239.029 143.905 238.66 143.352C238.384 142.707 238.154 142.016 237.969 141.279C237.601 140.542 237.324 139.712 237.14 138.791C236.587 137.132 236.403 134.736 236.587 131.603C236.771 128.469 237.002 125.152 237.278 121.65C237.647 118.148 237.877 114.738 237.969 111.421C238.154 108.103 237.969 105.431 237.416 103.403C236.956 101.652 235.988 100.178 234.514 98.9797C233.039 97.6895 231.518 96.7219 229.952 96.0768C228.385 95.3395 226.911 94.8788 225.528 94.6945C224.146 94.5102 223.317 94.5102 223.04 94.6945C222.672 94.8788 222.119 95.4778 221.381 96.4915C220.736 97.5052 219.999 98.6571 219.17 99.9473C218.432 101.237 217.695 102.62 216.958 104.094C216.221 105.569 215.622 106.905 215.161 108.103C214.7 109.025 214.193 110.269 213.64 111.835C213.087 113.125 212.396 114.83 211.567 116.95C210.83 119.07 209.862 121.604 208.664 124.553C209.309 117.918 209.77 112.757 210.046 109.071C210.323 105.292 210.553 102.482 210.737 100.638C210.922 98.5189 210.968 97.1827 210.876 96.6297C210.691 95.8925 210.092 95.5699 209.079 95.6621C208.065 95.7542 206.59 96.0768 204.655 96.6297C203.918 96.814 203.135 97.0905 202.305 97.4591C201.568 97.7356 200.739 98.1042 199.817 98.565C198.988 98.9336 198.158 99.3483 197.329 99.8091C197.421 102.205 197.467 104.509 197.467 106.721C197.559 108.932 197.605 110.868 197.605 112.526V118.056C197.698 122.479 197.744 126.534 197.744 130.22C197.744 133.814 197.836 136.809 198.02 139.205C198.204 141.509 198.711 143.168 199.541 144.182C200.37 145.195 200.969 145.887 201.338 146.255C201.706 146.624 202.397 146.716 203.411 146.532C204.425 146.44 205.485 146.163 206.59 145.702C207.789 145.242 208.802 144.735 209.632 144.182ZM259.876 145.841C261.904 146.854 263.885 147.361 265.82 147.361C267.848 147.361 269.599 147.039 271.073 146.394C272.64 145.841 273.976 145.103 275.082 144.182C276.188 143.26 277.109 142.247 277.847 141.141C278.676 140.035 279.367 138.975 279.92 137.961V141.97C279.92 144.366 279.736 147.269 279.367 150.679C279.091 154.181 278.492 157.498 277.57 160.631C276.741 163.857 275.497 166.576 273.838 168.787C272.179 171.091 270.014 172.243 267.341 172.243C264.853 172.243 263.01 171.229 261.812 169.202C260.614 167.174 260.015 164.64 260.015 161.599C259.923 160.493 259.969 159.387 260.153 158.282C260.337 156.254 260.844 153.996 261.673 151.508C259.83 151.692 258.172 152.153 256.697 152.89C255.223 153.628 253.979 154.457 252.965 155.379C252.043 156.392 251.306 157.36 250.753 158.282C250.292 159.203 250.062 159.894 250.062 160.355C250.062 162.198 250.246 164.226 250.615 166.437C250.983 168.741 251.721 170.907 252.827 172.934C254.025 174.962 255.683 176.666 257.803 178.049C260.015 179.431 262.918 180.122 266.512 180.122C270.659 180.122 274.16 179.201 277.017 177.358C279.874 175.515 282.178 173.072 283.929 170.031C285.68 166.99 286.97 163.534 287.799 159.664C288.629 155.885 289.136 152.061 289.32 148.191C289.412 145.979 289.596 142.431 289.873 137.547C290.057 133.4 290.334 127.594 290.702 120.129C291.071 112.665 291.532 102.896 292.085 90.8239C291.808 90.4553 291.347 90.2249 290.702 90.1328L289.044 89.8563H286.97C286.141 89.8563 285.357 89.9945 284.62 90.271C283.883 90.4553 283.146 90.7318 282.408 91.1004C281.763 91.469 281.164 91.8837 280.611 92.3445V94.9709C279.598 93.9572 278.307 93.0817 276.741 92.3445C275.266 91.5151 273.377 91.1004 271.073 91.1004C268.862 91.1004 266.419 91.6073 263.747 92.621C261.074 93.6347 258.586 95.3856 256.282 97.8738C254.071 100.27 252.181 103.495 250.615 107.55C249.048 111.513 248.265 116.535 248.265 122.617C248.265 126.764 248.818 130.405 249.924 133.538C251.03 136.579 252.458 139.159 254.209 141.279C255.96 143.306 257.849 144.827 259.876 145.841ZM266.926 101.053C268.401 99.6708 269.921 98.9797 271.488 98.9797C273.423 98.9797 274.99 99.8091 276.188 101.468C277.478 103.035 278.446 105.016 279.091 107.412C279.828 109.808 280.335 112.48 280.611 115.429C280.888 118.286 281.026 120.959 281.026 123.447C281.026 124.737 280.98 125.889 280.888 126.903C280.888 127.916 280.842 128.792 280.75 129.529C280.473 128.976 280.104 128.377 279.644 127.732C279.275 127.087 278.722 126.396 277.985 125.659C277.34 129.068 276.464 131.695 275.359 133.538C274.345 135.381 273.331 136.717 272.317 137.547C271.119 138.56 269.829 139.113 268.447 139.205C266.604 139.205 265.129 138.699 264.023 137.685C262.918 136.671 261.996 135.381 261.259 133.814C260.614 132.156 260.153 130.359 259.876 128.423C259.692 126.488 259.6 124.599 259.6 122.756C259.6 119.899 259.923 117.042 260.568 114.185C261.213 111.328 262.088 108.794 263.194 106.582C264.3 104.279 265.544 102.435 266.926 101.053ZM317.862 115.982C317.125 118.286 316.204 121.097 315.098 124.415C315.558 116.305 315.927 109.163 316.204 102.988C316.572 96.7219 316.849 91.2847 317.033 86.677C317.309 82.0692 317.54 78.1526 317.724 74.9272C317.908 71.7017 318.047 69.0293 318.139 66.9097C318.415 61.9333 318.507 58.9843 318.415 58.0628C318.231 57.0491 316.157 57.0491 312.195 58.0628C311.458 58.2471 310.674 58.5236 309.845 58.8922C309.108 59.1686 308.324 59.5373 307.495 59.998C306.665 60.3667 305.744 60.8274 304.73 61.3804C304.822 73.4527 304.868 83.1751 304.868 90.5475C304.961 97.8277 305.007 103.541 305.007 107.688V117.918C305.099 122.341 305.053 126.58 304.868 130.635C304.684 134.598 304.684 137.731 304.868 140.035C304.961 142.431 305.421 144.136 306.251 145.149C307.172 146.163 307.771 146.808 308.048 147.085C308.416 147.545 309.108 147.684 310.121 147.499C311.135 147.407 312.149 147.131 313.162 146.67C314.268 146.209 315.236 145.702 316.065 145.149C316.987 144.504 317.448 143.905 317.448 143.352C317.632 140.864 318.139 137.685 318.968 133.814C319.89 129.944 320.95 126.073 322.148 122.203C323.346 118.24 324.59 114.6 325.88 111.282C327.262 107.873 328.506 105.477 329.612 104.094C330.073 103.541 330.718 103.634 331.547 104.371C332.377 105.016 333.022 106.122 333.483 107.688C333.575 108.241 333.575 109.347 333.483 111.006C333.483 112.665 333.39 114.6 333.206 116.812C333.022 119.023 332.838 121.419 332.653 124C332.469 126.488 332.285 128.884 332.1 131.188C331.916 133.492 331.778 135.565 331.686 137.408C331.593 139.251 331.64 140.542 331.824 141.279C332.285 143.675 332.838 145.426 333.483 146.532C334.128 147.638 334.819 148.329 335.556 148.605C335.925 148.79 336.616 148.743 337.63 148.467C338.459 148.283 339.657 147.914 341.224 147.361C342.882 146.9 345.048 146.163 347.721 145.149C347.076 144.596 346.477 143.951 345.924 143.214C345.463 142.385 345.048 141.601 344.679 140.864L343.574 138.1C343.021 136.441 342.79 133.999 342.882 130.773C343.067 127.548 343.297 124.138 343.574 120.544C343.942 116.95 344.219 113.448 344.403 110.038C344.587 106.629 344.403 103.864 343.85 101.744C343.297 99.9934 342.283 98.5189 340.809 97.3209C339.427 96.1229 337.906 95.2013 336.247 94.5562C334.681 93.819 333.206 93.3582 331.824 93.1739C330.534 92.9896 329.704 92.9896 329.336 93.1739C328.875 93.4504 328.322 94.0033 327.677 94.8327C327.032 95.6621 326.341 96.7219 325.603 98.012C324.866 99.2101 324.129 100.546 323.392 102.021C322.747 103.495 322.148 104.97 321.595 106.444C321.134 107.458 320.581 108.794 319.936 110.453C319.383 111.835 318.692 113.678 317.862 115.982ZM374.189 68.0155C374.65 63.6842 374.973 59.8598 375.157 56.5422C374.604 56.2658 373.913 56.0814 373.084 55.9893C372.254 55.805 371.471 55.7128 370.734 55.7128H368.107C367.186 55.8971 366.264 56.1275 365.342 56.404C364.605 56.6805 363.822 57.003 362.993 57.3716C362.163 57.7402 361.472 58.2932 360.919 59.0304C361.103 59.399 361.149 60.597 361.057 62.6245C360.965 64.5597 360.827 66.7254 360.643 69.1214C360.458 71.8861 360.274 74.9733 360.09 78.383C359.905 82.8064 359.675 87.276 359.398 91.7916C359.122 96.215 358.846 100.5 358.569 104.647C358.385 108.702 358.2 112.573 358.016 116.259C357.832 119.853 357.74 123.032 357.74 125.797C357.74 128.377 357.878 131.004 358.154 133.676C358.523 136.256 358.984 138.606 359.537 140.726C360.182 142.846 361.011 144.596 362.025 145.979C363.039 147.269 364.237 147.914 365.619 147.914C366.356 147.914 367.186 147.776 368.107 147.499C368.844 147.315 369.72 147.039 370.734 146.67C371.747 146.301 372.853 145.748 374.051 145.011C373.037 143.813 372.208 142.569 371.563 141.279C370.918 139.989 370.411 138.238 370.042 136.026C369.674 133.814 369.443 131.004 369.351 127.594C369.351 124.092 369.536 119.576 369.904 114.047C370.273 108.518 370.688 103.035 371.148 97.5974C371.701 92.1602 372.208 86.9534 372.669 81.9771C373.222 77.0007 373.729 72.3468 374.189 68.0155ZM387.526 95.3856C386.052 96.0307 385.314 96.6297 385.314 97.1827C385.407 99.3022 385.591 102.482 385.867 106.721C386.144 110.868 386.098 116.766 385.729 124.415C385.545 128.285 385.499 131.603 385.591 134.367C385.683 137.04 385.821 139.251 386.006 141.002C386.19 142.661 386.374 143.951 386.558 144.873C386.743 145.795 386.927 146.44 387.111 146.808C387.204 147.177 387.757 147.361 388.77 147.361C389.784 147.361 390.844 147.223 391.95 146.946C393.055 146.762 394.069 146.44 394.991 145.979C395.912 145.518 396.373 145.057 396.373 144.596C396.281 142.016 396.281 139.482 396.373 136.994C396.465 134.505 396.603 132.248 396.788 130.22C396.972 127.824 397.156 125.613 397.341 123.585C397.433 121.65 397.617 119.3 397.894 116.535C398.17 113.678 398.446 110.868 398.723 108.103C398.999 105.246 399.23 102.574 399.414 100.086C399.598 97.5052 399.691 95.5239 399.691 94.1415C399.691 93.4043 398.907 93.0817 397.341 93.1739C395.866 93.1739 394.207 93.4043 392.364 93.8651C390.613 94.2337 389.001 94.7405 387.526 95.3856ZM400.243 71.3331C398.585 70.2273 396.834 69.6743 394.991 69.6743C392.963 69.6743 391.304 69.9969 390.014 70.642C388.724 71.287 387.71 72.1164 386.973 73.1301C386.236 74.0517 385.729 75.1115 385.453 76.3095C385.176 77.4154 385.038 78.4291 385.038 79.3506C385.038 80.0879 385.13 80.8712 385.314 81.7006C385.499 82.53 385.821 83.3133 386.282 84.0505C386.835 84.6956 387.572 85.2946 388.494 85.8476C389.415 86.3083 390.613 86.5387 392.088 86.5387C393.194 86.5387 394.392 86.2623 395.682 85.7093C396.972 85.0642 398.124 84.2348 399.138 83.2211C400.151 82.2074 400.981 81.0555 401.626 79.7653C402.363 78.4752 402.732 77.1389 402.732 75.7566C402.732 73.9135 401.902 72.439 400.243 71.3331ZM393.332 81.9771C392.687 82.3457 392.088 82.53 391.535 82.53C390.798 82.53 390.429 82.0692 390.429 81.1477C390.429 80.5947 390.613 80.0418 390.982 79.4889C391.443 78.8438 391.996 78.2908 392.641 77.8301C393.286 77.2771 393.931 76.8164 394.576 76.4477C395.313 76.0791 395.912 75.8948 396.373 75.8948C397.11 75.8948 397.479 76.2634 397.479 77.0007C397.479 77.4614 397.248 78.0144 396.788 78.6595C396.419 79.3046 395.912 79.9036 395.267 80.4565C394.714 81.0094 394.069 81.5163 393.332 81.9771ZM445.374 58.201C443.254 57.0952 440.858 56.4501 438.186 56.2658C430.905 56.2658 425.468 59.4912 421.874 65.942C418.28 72.3008 416.299 81.332 415.93 93.0357L412.06 94.0033C411.046 94.1876 410.217 94.3719 409.571 94.5562C409.203 94.5562 409.019 94.7405 409.019 95.1092L409.157 101.606C409.157 102.159 409.341 102.435 409.71 102.435C410.263 102.528 411.046 102.574 412.06 102.574C413.166 102.482 414.502 102.343 416.068 102.159C416.253 106.122 416.529 110.453 416.898 115.153C417.174 119.208 417.497 123.954 417.865 129.391C418.326 134.736 418.925 140.45 419.662 146.532C420.86 147.085 422.059 147.407 423.257 147.499C424.27 147.592 425.33 147.453 426.436 147.085C427.634 146.808 428.74 146.025 429.753 144.735C429.569 141.049 429.385 137.454 429.201 133.953C429.016 130.359 428.832 126.811 428.648 123.309C428.555 119.715 428.463 116.074 428.371 112.388C428.279 108.61 428.187 104.601 428.095 100.362C429.938 100.178 431.735 100.086 433.486 100.086C434.96 100.086 436.481 100.178 438.047 100.362C439.706 100.546 441.089 100.915 442.194 101.468C442.839 100.454 443.346 99.3944 443.715 98.2885C444.084 97.2748 444.36 96.1229 444.544 94.8327C444.729 93.5425 444.729 92.1141 444.544 90.5475C443.623 90.0867 442.609 89.7642 441.503 89.5798C440.49 89.3955 439.476 89.3034 438.462 89.3034C437.356 89.3034 436.204 89.3495 435.006 89.4416C433.716 89.5338 432.564 89.7181 431.55 89.9945C430.537 90.271 429.385 90.5014 428.095 90.6857C428.371 82.7604 429.201 76.5399 430.583 72.0243C432.057 67.4165 434.315 65.1127 437.356 65.1127C438.37 65.2048 439.199 65.6195 439.844 66.3568C440.397 67.0018 440.812 68.0155 441.089 69.3979C441.457 70.7802 441.457 72.7615 441.089 75.3419C442.287 75.5262 443.531 75.5262 444.821 75.3419C445.927 75.1576 447.171 74.835 448.553 74.3742C449.935 73.9135 451.318 73.1762 452.7 72.1625C452.608 68.1999 451.825 65.1587 450.35 63.0392C448.876 60.8274 447.217 59.2147 445.374 58.201ZM491.333 114.324C491.241 108.241 491.103 101.145 490.919 93.0357C490.919 92.2984 490.274 91.8837 488.983 91.7916C487.785 91.6994 486.403 91.8377 484.836 92.2063C483.362 92.4827 481.98 92.9896 480.689 93.7268C479.491 94.4641 478.892 95.2935 478.892 96.215V98.565C478.985 99.6708 479.077 101.099 479.169 102.85C479.353 104.601 479.538 106.582 479.722 108.794C479.906 110.914 480.09 113.172 480.275 115.568V116.673C480.275 118.885 479.906 121.281 479.169 123.862C478.432 126.35 477.372 128.7 475.99 130.911C474.699 133.123 473.179 134.966 471.428 136.441C469.677 137.915 467.788 138.652 465.76 138.652C464.747 138.652 463.917 137.915 463.272 136.441C462.627 134.966 462.12 133.169 461.752 131.05C461.475 128.93 461.291 126.718 461.199 124.415C461.106 122.111 461.06 120.129 461.06 118.47C461.06 116.443 461.153 114.185 461.337 111.697C461.521 109.117 461.844 106.675 462.304 104.371C462.765 101.975 463.364 99.8091 464.102 97.8738C464.839 95.9386 465.76 94.5562 466.866 93.7268C465.576 92.8974 463.641 92.5749 461.06 92.7592C458.48 92.9435 455.854 93.819 453.181 95.3856C452.72 95.6621 452.26 96.814 451.799 98.8414C451.43 100.777 451.108 103.081 450.831 105.753C450.555 108.426 450.324 111.236 450.14 114.185C449.956 117.042 449.864 119.484 449.864 121.512C449.864 124.184 450.002 127.133 450.278 130.359C450.647 133.492 451.292 136.441 452.214 139.205C453.135 141.878 454.471 144.136 456.222 145.979C457.973 147.73 460.277 148.605 463.134 148.605C464.793 148.605 466.451 148.191 468.11 147.361C469.861 146.624 471.566 145.61 473.225 144.32C474.884 143.03 476.45 141.555 477.925 139.897C479.399 138.146 480.689 136.349 481.795 134.505C482.072 137.731 482.21 140.68 482.21 143.352C482.302 145.933 482.348 148.052 482.348 149.711C482.348 151.831 482.21 154.273 481.934 157.037C481.749 159.802 481.196 162.429 480.275 164.917C479.445 167.405 478.155 169.478 476.404 171.137C474.745 172.888 472.442 173.764 469.493 173.764C467.373 173.764 465.622 173.119 464.24 171.828C462.857 170.538 461.798 168.925 461.06 166.99C460.415 165.147 460.139 163.166 460.231 161.046C460.415 158.927 460.968 157.037 461.89 155.379C461.337 155.194 460.738 155.148 460.093 155.24C459.448 155.333 458.803 155.471 458.158 155.655C457.42 155.839 456.683 156.07 455.946 156.346C454.103 157.084 452.72 157.913 451.799 158.834C450.877 159.756 450.416 160.585 450.416 161.323C450.416 161.691 450.509 162.935 450.693 165.055C450.877 167.267 451.568 169.617 452.766 172.105C453.964 174.593 455.854 176.805 458.434 178.74C461.014 180.767 464.747 181.781 469.631 181.781C473.686 181.781 477.141 180.537 479.998 178.049C482.855 175.561 485.159 172.381 486.91 168.511C488.661 164.64 489.905 160.355 490.642 155.655C491.472 151.047 491.84 146.578 491.748 142.247C491.748 138.745 491.702 134.552 491.61 129.667C491.518 125.52 491.426 120.406 491.333 114.324Z" fill="#009B9B"/>
</svg>
